<svg xmlns="http://www.w3.org/2000/svg" width="62.374" height="47.281" viewBox="0 0 62.374 47.281">
  <metadata><?xpacket begin="﻿" id="W5M0MpCehiHzreSzNTczkc9d"?>
<x:xmpmeta xmlns:x="adobe:ns:meta/" x:xmptk="Adobe XMP Core 5.6-c138 79.159824, 2016/09/14-01:09:01        ">
   <rdf:RDF xmlns:rdf="http://www.w3.org/1999/02/22-rdf-syntax-ns#">
      <rdf:Description rdf:about=""/>
   </rdf:RDF>
</x:xmpmeta>
                                                                                                    
                                                                                                    
                                                                                                    
                                                                                                    
                                                                                                    
                                                                                                    
                                                                                                    
                                                                                                    
                                                                                                    
                                                                                                    
                                                                                                    
                                                                                                    
                                                                                                    
                                                                                                    
                                                                                                    
                                                                                                    
                                                                                                    
                                                                                                    
                                                                                                    
                                                                                                    
                           
<?xpacket end="w"?></metadata>
<defs>
    <style>
      .cls-1 {
        fill: #6c6c6c;
        fill-rule: evenodd;
      }
    </style>
  </defs>
  <path id="Forma_1" data-name="Forma 1" class="cls-1" d="M1010.78,617.476a17.02,17.02,0,0,0-33.942.006,16.124,16.124,0,0,0-14.192,15.936c0,8.867,7.286,15.607,16.241,15.607h24.7a1.266,1.266,0,0,0,1.27-1.26c0-.7-0.57-0.785-1.27-0.785h-24.7a13.55,13.55,0,0,1-.743-27.086,1.265,1.265,0,0,0,1.2-1.258c0-.025,0-0.049,0-0.074a14.464,14.464,0,0,1,28.925,0v0.069a1.265,1.265,0,0,0,1.21,1.258,13.517,13.517,0,0,1,7.94,24.052,1.251,1.251,0,0,0-.19,1.772,1.282,1.282,0,0,0,1.79.183A16.022,16.022,0,0,0,1010.78,617.476Zm-18.243,6.891v16.064a1.273,1.273,0,0,0,2.545,0V624.367A1.273,1.273,0,0,0,992.537,624.367Zm8.553,2.336a1.291,1.291,0,0,0,.9-0.368,1.264,1.264,0,0,0,0-1.782l-7.281-7.205a1.281,1.281,0,0,0-1.8,0l-7.277,7.205a1.251,1.251,0,0,0,0,1.782,1.283,1.283,0,0,0,1.8,0l6.377-6.315,6.381,6.315A1.274,1.274,0,0,0,1001.09,626.7Z" transform="translate(-962.656 -601.75)"/>
</svg>
