<svg xmlns="http://www.w3.org/2000/svg" width="14.907" height="18.063" viewBox="0 0 14.907 18.063">
  <metadata><?xpacket begin="﻿" id="W5M0MpCehiHzreSzNTczkc9d"?>
<x:xmpmeta xmlns:x="adobe:ns:meta/" x:xmptk="Adobe XMP Core 5.6-c138 79.159824, 2016/09/14-01:09:01        ">
   <rdf:RDF xmlns:rdf="http://www.w3.org/1999/02/22-rdf-syntax-ns#">
      <rdf:Description rdf:about=""/>
   </rdf:RDF>
</x:xmpmeta>
                                                                                                    
                                                                                                    
                                                                                                    
                                                                                                    
                                                                                                    
                                                                                                    
                                                                                                    
                                                                                                    
                                                                                                    
                                                                                                    
                                                                                                    
                                                                                                    
                                                                                                    
                                                                                                    
                                                                                                    
                                                                                                    
                                                                                                    
                                                                                                    
                                                                                                    
                                                                                                    
                           
<?xpacket end="w"?></metadata>
<defs>
    <style>
      .cls-1 {
        fill: #fff;
        fill-rule: evenodd;
      }
    </style>
  </defs>
  <path id="_" data-name="" class="cls-1" d="M215.988,97.6a2.032,2.032,0,0,0-.7-0.484,2.33,2.33,0,0,0-.887-0.2h-8.408a0.963,0.963,0,0,0-.968.968v16.13a0.963,0.963,0,0,0,.968.968h13.362c0.269,0,.122-0.094.31-0.282a0.933,0.933,0,0,0,.283-0.686V102.149a2.686,2.686,0,0,0-.686-1.653Zm-0.543.657,3.281,3.343a1.114,1.114,0,0,1,.222.413h-3.916V98.036a1.092,1.092,0,0,1,.413.222h0ZM206,114V97.955h7.93v4.194a0.681,0.681,0,0,0,.282.561,0.934,0.934,0,0,0,.686.282h4.131V114H206Zm1.987-8.247a0.216,0.216,0,0,0,.094.181,0.387,0.387,0,0,0,.24.071h7.356a0.389,0.389,0,0,0,.24-0.071,0.216,0.216,0,0,0,.094-0.181v-0.5a0.216,0.216,0,0,0-.094-0.181,0.382,0.382,0,0,0-.24-0.071H208.32a0.38,0.38,0,0,0-.24.071,0.216,0.216,0,0,0-.094.181v0.5Zm0.334,1.235a0.38,0.38,0,0,0-.24.071,0.216,0.216,0,0,0-.094.181v0.5a0.216,0.216,0,0,0,.094.181,0.387,0.387,0,0,0,.24.071h7.356a0.389,0.389,0,0,0,.24-0.071,0.216,0.216,0,0,0,.094-0.181v-0.5a0.216,0.216,0,0,0-.094-0.181,0.382,0.382,0,0,0-.24-0.071H208.32Zm0,2.014a0.392,0.392,0,0,0-.24.069,0.21,0.21,0,0,0-.094.177v0.491a0.21,0.21,0,0,0,.094.177,0.392,0.392,0,0,0,.24.069h7.356a0.394,0.394,0,0,0,.24-0.069,0.21,0.21,0,0,0,.094-0.177v-0.491a0.21,0.21,0,0,0-.094-0.177,0.394,0.394,0,0,0-.24-0.069H208.32Z" transform="translate(-205.031 -96.906)"/>
</svg>
