<svg xmlns="http://www.w3.org/2000/svg" width="68" height="68" viewBox="0 0 68 68">
  <metadata><?xpacket begin="﻿" id="W5M0MpCehiHzreSzNTczkc9d"?>
<x:xmpmeta xmlns:x="adobe:ns:meta/" x:xmptk="Adobe XMP Core 5.6-c138 79.159824, 2016/09/14-01:09:01        ">
   <rdf:RDF xmlns:rdf="http://www.w3.org/1999/02/22-rdf-syntax-ns#">
      <rdf:Description rdf:about=""/>
   </rdf:RDF>
</x:xmpmeta>
                                                                                                    
                                                                                                    
                                                                                                    
                                                                                                    
                                                                                                    
                                                                                                    
                                                                                                    
                                                                                                    
                                                                                                    
                                                                                                    
                                                                                                    
                                                                                                    
                                                                                                    
                                                                                                    
                                                                                                    
                                                                                                    
                                                                                                    
                                                                                                    
                                                                                                    
                                                                                                    
                           
<?xpacket end="w"?></metadata>
<defs>
    <style>
      .cls-1 {
        fill: #6c6c6c;
        fill-rule: evenodd;
      }
    </style>
  </defs>
  <path id="Forma_1" data-name="Forma 1" class="cls-1" d="M639.85,600.017L634.184,592H610.05v5.033h-4.067v4.034H603V660h68V600.017H639.85Zm-34.83,58V603h21.2l5.667,8.267H631.9l5.316,7.174a1.136,1.136,0,0,0,.921.474v0.035H668.98v39.068H605.02Zm63.96-41.085H638.742l-4.056-5.916H668.98v5.916Zm0-7.933H633.062l-5.341-7.46h0l-0.336-.472H608v-2.1h21.616l5.667,8.016h33.7V609Zm-32.53-4.033-5.666-7.934H612.067v-3.016h20.949l5.667,7.933h30.3v3.017H636.45ZM633.933,654h30.984V632H633.933v22Zm2.017-20.067h27.033v18.134H635.95V633.933Zm4.044,4.058h11.02v2.015h-11.02v-2.015Zm0,4H658v2.014H639.994v-2.014Zm0,4H658v2.015H639.994v-2.015Z" transform="translate(-603 -592)"/>
</svg>
