<svg xmlns="http://www.w3.org/2000/svg" width="62.72" height="66.656" viewBox="0 0 62.72 66.656">
  <metadata><?xpacket begin="﻿" id="W5M0MpCehiHzreSzNTczkc9d"?>
<x:xmpmeta xmlns:x="adobe:ns:meta/" x:xmptk="Adobe XMP Core 5.6-c138 79.159824, 2016/09/14-01:09:01        ">
   <rdf:RDF xmlns:rdf="http://www.w3.org/1999/02/22-rdf-syntax-ns#">
      <rdf:Description rdf:about=""/>
   </rdf:RDF>
</x:xmpmeta>
                                                                                                    
                                                                                                    
                                                                                                    
                                                                                                    
                                                                                                    
                                                                                                    
                                                                                                    
                                                                                                    
                                                                                                    
                                                                                                    
                                                                                                    
                                                                                                    
                                                                                                    
                                                                                                    
                                                                                                    
                                                                                                    
                                                                                                    
                                                                                                    
                                                                                                    
                                                                                                    
                           
<?xpacket end="w"?></metadata>
<defs>
    <style>
      .cls-1 {
        fill: #e83636;
        fill-rule: evenodd;
      }
    </style>
  </defs>
  <path id="Forma_1" data-name="Forma 1" class="cls-1" d="M1344.26,618.108a2.9,2.9,0,0,0,2.88-2.882V597.865a2.9,2.9,0,0,0-2.88-2.882,2.858,2.858,0,0,0-2.88,2.882v17.361A2.858,2.858,0,0,0,1344.26,618.108Zm26.14-5.161a30.512,30.512,0,0,0-13.94-11.6,1.89,1.89,0,0,0-2.51,1.039,1.954,1.954,0,0,0,1,2.547,27.478,27.478,0,0,1,14.65,36.029,27.072,27.072,0,0,1-14.65,14.646,27.312,27.312,0,0,1-21.38,0,27.011,27.011,0,0,1-14.64-14.646,27.559,27.559,0,0,1,2.28-25.774A26.72,26.72,0,0,1,1333.2,605a1.874,1.874,0,0,0,1.04-2.48,1.956,1.956,0,0,0-2.54-1.039,31.552,31.552,0,0,0-18.8,28.789,30.4,30.4,0,0,0,2.48,12.166,31.871,31.871,0,0,0,6.7,9.988,31.472,31.472,0,0,0,44.37,0,32.116,32.116,0,0,0,6.67-9.988A31.083,31.083,0,0,0,1370.4,612.947Z" transform="translate(-1312.91 -594.969)"/>
</svg>
