<svg xmlns="http://www.w3.org/2000/svg" width="51.063" height="63.906" viewBox="0 0 51.063 63.906">
  <metadata><?xpacket begin="﻿" id="W5M0MpCehiHzreSzNTczkc9d"?>
<x:xmpmeta xmlns:x="adobe:ns:meta/" x:xmptk="Adobe XMP Core 5.6-c138 79.159824, 2016/09/14-01:09:01        ">
   <rdf:RDF xmlns:rdf="http://www.w3.org/1999/02/22-rdf-syntax-ns#">
      <rdf:Description rdf:about=""/>
   </rdf:RDF>
</x:xmpmeta>
                                                                                                    
                                                                                                    
                                                                                                    
                                                                                                    
                                                                                                    
                                                                                                    
                                                                                                    
                                                                                                    
                                                                                                    
                                                                                                    
                                                                                                    
                                                                                                    
                                                                                                    
                                                                                                    
                                                                                                    
                                                                                                    
                                                                                                    
                                                                                                    
                                                                                                    
                                                                                                    
                           
<?xpacket end="w"?></metadata>
<defs>
    <style>
      .cls-1 {
        fill: #6c6c6c;
        fill-rule: evenodd;
      }
    </style>
  </defs>
  <path id="Forma_1" data-name="Forma 1" class="cls-1" d="M647.754,342.954H620.989a1.009,1.009,0,1,0,0,2.015h26.765A1.009,1.009,0,1,0,647.754,342.954ZM620.989,337H631.7a0.982,0.982,0,1,0,0-1.955H620.989A0.982,0.982,0,1,0,620.989,337Zm26.765,13.99H620.989a1.009,1.009,0,1,0,0,2.015h26.765A1.009,1.009,0,1,0,647.754,350.988Zm0,9.034H620.989a0.994,0.994,0,1,0,0,1.983h26.765A0.994,0.994,0,1,0,647.754,360.022Zm0,7.971H620.989a1.009,1.009,0,1,0,0,2.015h26.765A1.009,1.009,0,1,0,647.754,367.993Zm4.283-36.377V316H606v58.885h5.02V379.9h46.037V336.657Zm-10.011-7.295,10.011,10.01,1.7,1.7H642.026V324.321Zm-34.051,48.422V318.016H649.9v11.459l-8.122-7.5H611.02v50.765h-3.045Zm5.019,5.187V323.994H640.01v13.989h14.906V377.93H612.994Z" transform="translate(-606 -316)"/>
</svg>
