<svg xmlns="http://www.w3.org/2000/svg" width="67.88" height="67.875" viewBox="0 0 67.88 67.875">
  <metadata><?xpacket begin="﻿" id="W5M0MpCehiHzreSzNTczkc9d"?>
<x:xmpmeta xmlns:x="adobe:ns:meta/" x:xmptk="Adobe XMP Core 5.6-c138 79.159824, 2016/09/14-01:09:01        ">
   <rdf:RDF xmlns:rdf="http://www.w3.org/1999/02/22-rdf-syntax-ns#">
      <rdf:Description rdf:about=""/>
   </rdf:RDF>
</x:xmpmeta>
                                                                                                    
                                                                                                    
                                                                                                    
                                                                                                    
                                                                                                    
                                                                                                    
                                                                                                    
                                                                                                    
                                                                                                    
                                                                                                    
                                                                                                    
                                                                                                    
                                                                                                    
                                                                                                    
                                                                                                    
                                                                                                    
                                                                                                    
                                                                                                    
                                                                                                    
                                                                                                    
                           
<?xpacket end="w"?></metadata>
<defs>
    <style>
      .cls-1 {
        fill: #6c6c6c;
        fill-rule: evenodd;
      }
    </style>
  </defs>
  <path id="Forma_1" data-name="Forma 1" class="cls-1" d="M1025.87,347.937a33.935,33.935,0,1,0-56.855,25l-0.032.028,1.1,0.928c0.072,0.061.149,0.11,0.221,0.169,0.585,0.485,1.191.946,1.808,1.391,0.2,0.144.4,0.289,0.6,0.429q0.989,0.683,2.027,1.294c0.15,0.089.3,0.175,0.454,0.261,0.756,0.431,1.529.837,2.32,1.21l0.175,0.079a33.664,33.664,0,0,0,8.208,2.6l0.227,0.04c0.894,0.155,1.8.278,2.712,0.361,0.111,0.01.222,0.016,0.334,0.026,0.911,0.075,1.831.123,2.764,0.123s1.837-.048,2.743-0.121c0.114-.01.229-0.016,0.344-0.026q1.361-.125,2.688-0.354l0.231-.042a33.54,33.54,0,0,0,8.087-2.536c0.1-.043.19-0.084,0.29-0.128,0.76-.358,1.5-0.745,2.23-1.156q0.27-.153.54-0.312c0.67-.391,1.32-0.8,1.95-1.234,0.23-.155.46-0.32,0.68-0.482,0.54-.39,1.08-0.793,1.59-1.213,0.12-.093.24-0.173,0.35-0.268l1.13-.943-0.03-.029A33.859,33.859,0,0,0,1025.87,347.937Zm-65.4,0a31.471,31.471,0,1,1,52.342,23.526,10.2,10.2,0,0,0-1.1-.663l-10.45-5.224a2.734,2.734,0,0,1-1.524-2.459v-3.649c0.242-.3.494-0.637,0.764-1.009a25.527,25.527,0,0,0,3.23-6.322,4.482,4.482,0,0,0,2.57-4.059V343.7a4.452,4.452,0,0,0-1.1-2.923v-5.76a9.89,9.89,0,0,0-2.32-7.236c-2.27-2.6-5.956-3.911-10.943-3.911s-8.668,1.314-10.942,3.909a9.957,9.957,0,0,0-2.324,7.237v5.76a4.494,4.494,0,0,0-1.1,2.923v4.375a4.488,4.488,0,0,0,1.654,3.481,23.205,23.205,0,0,0,3.817,7.885v3.571a2.754,2.754,0,0,1-1.434,2.417l-9.758,5.322a8.842,8.842,0,0,0-.928.588A31.4,31.4,0,0,1,960.468,347.937ZM1010.4,373.4q-0.645.471-1.32,0.907c-0.2.134-.41,0.267-0.62,0.4-0.58.361-1.17,0.7-1.78,1.025-0.13.07-.26,0.137-0.4,0.206a31.23,31.23,0,0,1-4.3,1.821c-0.05.018-.11,0.036-0.16,0.053-0.77.257-1.56,0.485-2.348,0.682h-0.008c-0.8.2-1.609,0.361-2.424,0.5-0.022,0-.044.009-0.066,0.012-0.767.125-1.539,0.215-2.314,0.283-0.137.012-.274,0.021-0.412,0.031-0.767.058-1.537,0.095-2.311,0.095s-1.562-.038-2.338-0.1c-0.135-.009-0.269-0.018-0.4-0.03-0.783-.069-1.562-0.162-2.333-0.288l-0.1-.018a31.314,31.314,0,0,1-4.8-1.2l-0.146-.049c-0.776-.264-1.544-0.557-2.3-0.88l-0.016-.007c-0.713-.308-1.413-0.648-2.1-1.007-0.09-.047-0.181-0.092-0.27-0.14-0.631-.337-1.248-0.7-1.856-1.081q-0.27-.169-0.537-0.344c-0.56-.367-1.113-0.748-1.651-1.152-0.056-.042-0.109-0.086-0.164-0.128l0.118-.067,9.758-5.322a5.22,5.22,0,0,0,2.721-4.584v-4.445l-0.284-.343a20.6,20.6,0,0,1-3.7-7.671l-0.113-.489-0.42-.272a2.046,2.046,0,0,1-.95-1.718V343.7a2.016,2.016,0,0,1,.688-1.509l0.407-.368V334.95l-0.011-.162a7.429,7.429,0,0,1,1.723-5.38c1.784-2.034,4.842-3.067,9.086-3.067,4.228,0,7.277,1.024,9.063,3.043a7.582,7.582,0,0,1,1.75,5.407l-0.01,7.035,0.4,0.368a2,2,0,0,1,.69,1.509v4.375a2.062,2.062,0,0,1-1.46,1.944l-0.61.189-0.2.611a22.883,22.883,0,0,1-3.078,6.209c-0.323.457-.638,0.862-0.908,1.172l-0.307.349v4.565a5.19,5.19,0,0,0,2.883,4.667l10.45,5.224c0.07,0.033.13,0.068,0.2,0.1C1010.67,373.21,1010.53,373.3,1010.4,373.4Z" transform="translate(-958 -314)"/>
</svg>
