<svg xmlns="http://www.w3.org/2000/svg" width="70.97" height="70.938" viewBox="0 0 70.97 70.938">
  <metadata><?xpacket begin="﻿" id="W5M0MpCehiHzreSzNTczkc9d"?>
<x:xmpmeta xmlns:x="adobe:ns:meta/" x:xmptk="Adobe XMP Core 5.6-c138 79.159824, 2016/09/14-01:09:01        ">
   <rdf:RDF xmlns:rdf="http://www.w3.org/1999/02/22-rdf-syntax-ns#">
      <rdf:Description rdf:about=""/>
   </rdf:RDF>
</x:xmpmeta>
                                                                                                    
                                                                                                    
                                                                                                    
                                                                                                    
                                                                                                    
                                                                                                    
                                                                                                    
                                                                                                    
                                                                                                    
                                                                                                    
                                                                                                    
                                                                                                    
                                                                                                    
                                                                                                    
                                                                                                    
                                                                                                    
                                                                                                    
                                                                                                    
                                                                                                    
                                                                                                    
                           
<?xpacket end="w"?></metadata>
<defs>
    <style>
      .cls-1 {
        fill: #6c6c6c;
        fill-rule: evenodd;
      }
    </style>
  </defs>
  <path id="Forma_1" data-name="Forma 1" class="cls-1" d="M1336.61,331.432h-2.95l-7.36,12.614-7.35-12.614h-2.93a8.037,8.037,0,0,0-8.02,8.019v16.022a8.021,8.021,0,0,0,6.87,7.921v19.557h22.88V363.408a8.021,8.021,0,0,0,6.88-7.921V339.451A8.028,8.028,0,0,0,1336.61,331.432Zm-21.75,29.643a5.71,5.71,0,0,1-4.57-5.588V339.451a5.754,5.754,0,0,1,.89-3.046l3.68,10.114v14.556Zm20.62-14.947V380.66h-8.03V368.074h-2.3V380.66h-8V346.128l-4.18-11.5a8.086,8.086,0,0,1,4.67-.894l8.67,14.863,8.68-14.863s3.34-.265,4.66.894Zm6.86,9.345a5.723,5.723,0,0,1-4.59,5.6V346.533l3.68-10.114a5.516,5.516,0,0,1,.91,3.032v16.022ZM1326.31,312a9.15,9.15,0,1,0,9.15,9.15A9.153,9.153,0,0,0,1326.31,312Zm0,16.023a6.873,6.873,0,1,1,6.88-6.873A6.891,6.891,0,0,1,1326.31,328.024Zm20.61,1.131v2.291a16.023,16.023,0,0,1,0,32.046v2.291A18.314,18.314,0,0,0,1346.92,329.155Zm32.04,24.935V340.862l-5.78-1.453a26.977,26.977,0,0,0-1.98-4.806l3.07-5.113-9.36-9.359-5.11,3.073a27.053,27.053,0,0,0-4.81-1.983l-1.45-5.8h-13.23l-1.61,6.426,2.23,0.559,1.16-4.694h9.65l1.34,5.337a26,26,0,0,1,6.75,2.793l4.72-2.835,6.83,6.831-2.84,4.721a25.212,25.212,0,0,1,2.8,6.748l5.33,1.327v9.652l-5.33,1.341a26.438,26.438,0,0,1-2.8,6.748l2.84,4.721-6.83,6.831-4.72-2.835a25.052,25.052,0,0,1-6.75,2.793l-1.34,5.337h-9.65l-1.18-4.694-2.22.559,1.61,6.426h13.24l1.45-5.784a27.128,27.128,0,0,0,4.81-1.983l5.11,3.073,9.36-9.36-3.07-5.112a26.977,26.977,0,0,0,1.98-4.806Z" transform="translate(-1308 -312)"/>
</svg>
